<?xml version="1.0" encoding="UTF-8"?>
<svg xmlns="http://www.w3.org/2000/svg" xmlns:xlink="http://www.w3.org/1999/xlink" width="38px" height="38px" viewBox="0 0 38 38" version="1.1">
<g id="surface1">
<path style=" stroke:none;fill-rule:nonzero;fill:rgb(88.627451%,10.588235%,30.588235%);fill-opacity:1;" d="M 0 4.117188 L 38 4.117188 L 38 31.214844 L 0 31.214844 Z M 0 4.117188 "/>
<path style=" stroke:none;fill-rule:nonzero;fill:rgb(100%,44.313725%,49.019608%);fill-opacity:1;" d="M 0 4.117188 L 19 4.117188 L 19 31.214844 L 0 31.214844 Z M 0 4.117188 "/>
<path style=" stroke:none;fill-rule:nonzero;fill:rgb(99.607843%,87.45098%,70.980392%);fill-opacity:1;" d="M 1.691406 5.808594 L 36.308594 5.808594 L 36.308594 29.523438 L 1.691406 29.523438 Z M 1.691406 5.808594 "/>
<path style=" stroke:none;fill-rule:nonzero;fill:rgb(100%,94.509804%,84.705882%);fill-opacity:1;" d="M 1.691406 5.808594 L 19 5.808594 L 19 29.523438 L 1.691406 29.523438 Z M 1.691406 5.808594 "/>
<path style=" stroke:none;fill-rule:nonzero;fill:rgb(76.078431%,21.568627%,0%);fill-opacity:1;" d="M 4.519531 10.160156 L 12.148438 10.160156 L 12.148438 12.484375 L 4.519531 12.484375 Z M 4.519531 10.160156 "/>
<path style=" stroke:none;fill-rule:nonzero;fill:rgb(76.078431%,21.568627%,0%);fill-opacity:1;" d="M 4.519531 14.386719 L 16.171875 14.386719 L 16.171875 16.714844 L 4.519531 16.714844 Z M 4.519531 14.386719 "/>
<path style=" stroke:none;fill-rule:nonzero;fill:rgb(76.078431%,21.568627%,0%);fill-opacity:1;" d="M 4.519531 18.617188 L 16.171875 18.617188 L 16.171875 20.945312 L 4.519531 20.945312 Z M 4.519531 18.617188 "/>
<path style=" stroke:none;fill-rule:nonzero;fill:rgb(76.078431%,21.568627%,0%);fill-opacity:1;" d="M 4.519531 22.847656 L 16.171875 22.847656 L 16.171875 25.171875 L 4.519531 25.171875 Z M 4.519531 22.847656 "/>
<path style=" stroke:none;fill-rule:nonzero;fill:rgb(76.078431%,21.568627%,0%);fill-opacity:1;" d="M 21.828125 10.160156 L 33.480469 10.160156 L 33.480469 12.484375 L 21.828125 12.484375 Z M 21.828125 10.160156 "/>
<path style=" stroke:none;fill-rule:nonzero;fill:rgb(76.078431%,21.568627%,0%);fill-opacity:1;" d="M 21.828125 14.386719 L 33.480469 14.386719 L 33.480469 16.714844 L 21.828125 16.714844 Z M 21.828125 14.386719 "/>
<path style=" stroke:none;fill-rule:nonzero;fill:rgb(76.078431%,21.568627%,0%);fill-opacity:1;" d="M 21.828125 18.617188 L 33.480469 18.617188 L 33.480469 20.945312 L 21.828125 20.945312 Z M 21.828125 18.617188 "/>
<path style=" stroke:none;fill-rule:nonzero;fill:rgb(76.078431%,21.568627%,0%);fill-opacity:1;" d="M 21.828125 22.847656 L 33.480469 22.847656 L 33.480469 25.171875 L 21.828125 25.171875 Z M 21.828125 22.847656 "/>
<path style=" stroke:none;fill-rule:nonzero;fill:rgb(100%,44.313725%,49.019608%);fill-opacity:1;" d="M 29.5 33.882812 L 27.652344 32.71875 L 25.808594 33.882812 L 25.808594 4.117188 L 29.5 4.117188 Z M 29.5 33.882812 "/>
</g>
</svg>
