<?xml version="1.0" encoding="UTF-8"?>
<svg xmlns="http://www.w3.org/2000/svg" xmlns:xlink="http://www.w3.org/1999/xlink" width="38px" height="38px" viewBox="0 0 38 38" version="1.1">
<g id="surface1">
<path style=" stroke:none;fill-rule:nonzero;fill:rgb(100%,81.568627%,35.686275%);fill-opacity:1;" d="M 38 19 C 38 29.492188 29.492188 38 19 38 C 8.507812 38 0 29.492188 0 19 C 0 8.507812 8.507812 0 19 0 C 29.492188 0 38 8.507812 38 19 Z M 38 19 "/>
<path style=" stroke:none;fill-rule:nonzero;fill:rgb(100%,100%,100%);fill-opacity:1;" d="M 29.652344 32.34375 L 8.347656 32.34375 C 7.78125 32.34375 7.300781 31.894531 7.300781 31.296875 L 7.300781 6.671875 C 7.300781 6.105469 7.75 5.625 8.347656 5.625 L 29.621094 5.625 C 30.191406 5.625 30.667969 6.074219 30.667969 6.671875 L 30.667969 31.328125 C 30.667969 31.894531 30.21875 32.34375 29.652344 32.34375 Z M 29.652344 32.34375 "/>
<path style=" stroke:none;fill-rule:nonzero;fill:rgb(100%,43.921569%,34.509804%);fill-opacity:1;" d="M 30.667969 11.667969 L 30.667969 6.671875 C 30.667969 6.105469 30.21875 5.65625 29.652344 5.65625 L 8.347656 5.65625 C 7.78125 5.65625 7.332031 6.105469 7.332031 6.671875 L 7.332031 11.667969 Z M 30.667969 11.667969 "/>
<path style=" stroke:none;fill-rule:nonzero;fill:rgb(100%,100%,100%);fill-opacity:1;" d="M 13.40625 10.113281 L 12.058594 8.167969 L 12.058594 9.964844 C 12.058594 10.113281 11.9375 10.234375 11.789062 10.234375 C 11.640625 10.234375 11.519531 10.113281 11.519531 9.964844 L 11.519531 7.332031 C 11.519531 7.179688 11.640625 7.0625 11.789062 7.0625 C 11.878906 7.0625 11.9375 7.089844 12 7.179688 L 13.34375 9.125 L 13.34375 7.332031 C 13.34375 7.179688 13.464844 7.0625 13.613281 7.0625 C 13.765625 7.0625 13.882812 7.179688 13.882812 7.332031 L 13.882812 9.964844 C 13.882812 10.113281 13.765625 10.234375 13.613281 10.234375 C 13.523438 10.234375 13.433594 10.203125 13.40625 10.113281 Z M 13.40625 10.113281 "/>
<path style=" stroke:none;fill-rule:nonzero;fill:rgb(100%,100%,100%);fill-opacity:1;" d="M 17.5625 9.964844 C 17.5625 10.113281 17.445312 10.234375 17.292969 10.234375 L 15.859375 10.234375 C 15.707031 10.234375 15.589844 10.113281 15.589844 9.964844 L 15.589844 7.332031 C 15.589844 7.179688 15.707031 7.0625 15.859375 7.0625 L 17.292969 7.0625 C 17.445312 7.0625 17.5625 7.179688 17.5625 7.332031 C 17.5625 7.480469 17.445312 7.601562 17.292969 7.601562 L 16.128906 7.601562 L 16.128906 8.378906 L 17.054688 8.378906 C 17.203125 8.378906 17.324219 8.496094 17.324219 8.648438 C 17.324219 8.796875 17.203125 8.917969 17.054688 8.917969 L 16.128906 8.917969 L 16.128906 9.695312 L 17.292969 9.695312 C 17.445312 9.695312 17.5625 9.8125 17.5625 9.964844 Z M 17.5625 9.964844 "/>
<path style=" stroke:none;fill-rule:nonzero;fill:rgb(100%,100%,100%);fill-opacity:1;" d="M 22.652344 7.242188 L 21.8125 9.273438 L 21.515625 8.527344 L 21.992188 7.421875 C 22.050781 7.242188 21.933594 7.0625 21.753906 7.0625 C 21.632812 7.0625 21.542969 7.121094 21.515625 7.210938 L 21.242188 7.839844 L 20.976562 7.210938 C 20.945312 7.121094 20.824219 7.0625 20.734375 7.0625 C 20.554688 7.0625 20.40625 7.242188 20.496094 7.421875 L 20.976562 8.527344 L 20.675781 9.273438 L 19.808594 7.242188 C 19.777344 7.152344 19.660156 7.089844 19.570312 7.089844 C 19.390625 7.089844 19.238281 7.269531 19.328125 7.449219 L 20.4375 10.082031 C 20.464844 10.171875 20.585938 10.234375 20.675781 10.234375 C 20.765625 10.234375 20.882812 10.171875 20.914062 10.082031 L 21.273438 9.246094 L 21.632812 10.082031 C 21.664062 10.171875 21.78125 10.234375 21.871094 10.234375 C 21.960938 10.234375 22.082031 10.171875 22.113281 10.082031 L 23.21875 7.449219 C 23.277344 7.269531 23.160156 7.089844 22.980469 7.089844 C 22.800781 7.089844 22.679688 7.152344 22.652344 7.242188 Z M 22.652344 7.242188 "/>
<path style=" stroke:none;fill-rule:nonzero;fill:rgb(90.196078%,91.372549%,93.333333%);fill-opacity:1;" d="M 16.1875 13.015625 L 21.8125 13.015625 L 21.8125 13.792969 L 16.1875 13.792969 Z M 16.1875 13.015625 "/>
<path style=" stroke:none;fill-rule:nonzero;fill:rgb(90.196078%,91.372549%,93.333333%);fill-opacity:1;" d="M 23.519531 13.015625 L 29.144531 13.015625 L 29.144531 13.792969 L 23.519531 13.792969 Z M 23.519531 13.015625 "/>
<path style=" stroke:none;fill-rule:nonzero;fill:rgb(90.196078%,91.372549%,93.333333%);fill-opacity:1;" d="M 16.1875 15.140625 L 21.8125 15.140625 L 21.8125 15.917969 L 16.1875 15.917969 Z M 16.1875 15.140625 "/>
<path style=" stroke:none;fill-rule:nonzero;fill:rgb(90.196078%,91.372549%,93.333333%);fill-opacity:1;" d="M 23.519531 15.140625 L 29.144531 15.140625 L 29.144531 15.917969 L 23.519531 15.917969 Z M 23.519531 15.140625 "/>
<path style=" stroke:none;fill-rule:nonzero;fill:rgb(90.196078%,91.372549%,93.333333%);fill-opacity:1;" d="M 16.1875 17.265625 L 21.8125 17.265625 L 21.8125 18.042969 L 16.1875 18.042969 Z M 16.1875 17.265625 "/>
<path style=" stroke:none;fill-rule:nonzero;fill:rgb(90.196078%,91.372549%,93.333333%);fill-opacity:1;" d="M 23.519531 17.265625 L 29.144531 17.265625 L 29.144531 18.042969 L 23.519531 18.042969 Z M 23.519531 17.265625 "/>
<path style=" stroke:none;fill-rule:nonzero;fill:rgb(90.196078%,91.372549%,93.333333%);fill-opacity:1;" d="M 8.855469 19.390625 L 14.480469 19.390625 L 14.480469 20.167969 L 8.855469 20.167969 Z M 8.855469 19.390625 "/>
<path style=" stroke:none;fill-rule:nonzero;fill:rgb(51.764706%,85.882353%,100%);fill-opacity:1;" d="M 8.855469 13.015625 L 14.480469 13.015625 L 14.480469 18.429688 L 8.855469 18.429688 Z M 8.855469 13.015625 "/>
<path style=" stroke:none;fill-rule:nonzero;fill:rgb(90.196078%,91.372549%,93.333333%);fill-opacity:1;" d="M 16.1875 19.390625 L 21.8125 19.390625 L 21.8125 20.167969 L 16.1875 20.167969 Z M 16.1875 19.390625 "/>
<path style=" stroke:none;fill-rule:nonzero;fill:rgb(90.196078%,91.372549%,93.333333%);fill-opacity:1;" d="M 23.519531 19.390625 L 29.144531 19.390625 L 29.144531 20.167969 L 23.519531 20.167969 Z M 23.519531 19.390625 "/>
<path style=" stroke:none;fill-rule:nonzero;fill:rgb(90.196078%,91.372549%,93.333333%);fill-opacity:1;" d="M 8.855469 21.515625 L 14.480469 21.515625 L 14.480469 22.292969 L 8.855469 22.292969 Z M 8.855469 21.515625 "/>
<path style=" stroke:none;fill-rule:nonzero;fill:rgb(90.196078%,91.372549%,93.333333%);fill-opacity:1;" d="M 16.1875 21.515625 L 21.8125 21.515625 L 21.8125 22.292969 L 16.1875 22.292969 Z M 16.1875 21.515625 "/>
<path style=" stroke:none;fill-rule:nonzero;fill:rgb(51.764706%,85.882353%,100%);fill-opacity:1;" d="M 23.519531 21.515625 L 29.144531 21.515625 L 29.144531 26.539062 L 23.519531 26.539062 Z M 23.519531 21.515625 "/>
<path style=" stroke:none;fill-rule:nonzero;fill:rgb(90.196078%,91.372549%,93.333333%);fill-opacity:1;" d="M 8.855469 23.636719 L 14.480469 23.636719 L 14.480469 24.414062 L 8.855469 24.414062 Z M 8.855469 23.636719 "/>
<path style=" stroke:none;fill-rule:nonzero;fill:rgb(90.196078%,91.372549%,93.333333%);fill-opacity:1;" d="M 16.1875 23.636719 L 21.8125 23.636719 L 21.8125 24.414062 L 16.1875 24.414062 Z M 16.1875 23.636719 "/>
<path style=" stroke:none;fill-rule:nonzero;fill:rgb(90.196078%,91.372549%,93.333333%);fill-opacity:1;" d="M 8.855469 25.730469 L 14.480469 25.730469 L 14.480469 26.511719 L 8.855469 26.511719 Z M 8.855469 25.730469 "/>
<path style=" stroke:none;fill-rule:nonzero;fill:rgb(90.196078%,91.372549%,93.333333%);fill-opacity:1;" d="M 16.1875 25.730469 L 21.8125 25.730469 L 21.8125 26.511719 L 16.1875 26.511719 Z M 16.1875 25.730469 "/>
<path style=" stroke:none;fill-rule:nonzero;fill:rgb(90.196078%,91.372549%,93.333333%);fill-opacity:1;" d="M 8.855469 27.855469 L 14.480469 27.855469 L 14.480469 28.632812 L 8.855469 28.632812 Z M 8.855469 27.855469 "/>
<path style=" stroke:none;fill-rule:nonzero;fill:rgb(90.196078%,91.372549%,93.333333%);fill-opacity:1;" d="M 16.1875 27.855469 L 21.8125 27.855469 L 21.8125 28.632812 L 16.1875 28.632812 Z M 16.1875 27.855469 "/>
<path style=" stroke:none;fill-rule:nonzero;fill:rgb(90.196078%,91.372549%,93.333333%);fill-opacity:1;" d="M 23.519531 27.855469 L 29.144531 27.855469 L 29.144531 28.632812 L 23.519531 28.632812 Z M 23.519531 27.855469 "/>
<path style=" stroke:none;fill-rule:nonzero;fill:rgb(90.196078%,91.372549%,93.333333%);fill-opacity:1;" d="M 8.855469 29.980469 L 14.480469 29.980469 L 14.480469 30.757812 L 8.855469 30.757812 Z M 8.855469 29.980469 "/>
<path style=" stroke:none;fill-rule:nonzero;fill:rgb(90.196078%,91.372549%,93.333333%);fill-opacity:1;" d="M 16.1875 29.980469 L 21.8125 29.980469 L 21.8125 30.757812 L 16.1875 30.757812 Z M 16.1875 29.980469 "/>
<path style=" stroke:none;fill-rule:nonzero;fill:rgb(90.196078%,91.372549%,93.333333%);fill-opacity:1;" d="M 23.519531 29.980469 L 29.144531 29.980469 L 29.144531 30.757812 L 23.519531 30.757812 Z M 23.519531 29.980469 "/>
<path style=" stroke:none;fill-rule:nonzero;fill:rgb(100%,100%,100%);fill-opacity:1;" d="M 25.492188 8.378906 C 25.285156 8.378906 25.105469 8.199219 25.105469 7.988281 C 25.105469 7.78125 25.285156 7.601562 25.492188 7.601562 C 25.613281 7.601562 25.703125 7.628906 25.792969 7.71875 C 25.882812 7.839844 26.0625 7.839844 26.152344 7.71875 C 26.269531 7.628906 26.269531 7.449219 26.152344 7.359375 C 25.972656 7.179688 25.730469 7.0625 25.492188 7.0625 C 24.984375 7.0625 24.566406 7.480469 24.566406 7.988281 C 24.566406 8.496094 24.984375 8.917969 25.492188 8.917969 C 25.703125 8.917969 25.882812 9.09375 25.882812 9.304688 C 25.882812 9.515625 25.703125 9.695312 25.492188 9.695312 C 25.375 9.695312 25.285156 9.664062 25.195312 9.574219 C 25.105469 9.453125 24.925781 9.453125 24.835938 9.574219 C 24.714844 9.664062 24.714844 9.84375 24.835938 9.933594 C 25.015625 10.113281 25.253906 10.234375 25.492188 10.234375 C 26 10.234375 26.421875 9.8125 26.421875 9.304688 C 26.421875 8.796875 26 8.378906 25.492188 8.378906 Z M 25.492188 8.378906 "/>
</g>
</svg>
