<?xml version="1.0" encoding="UTF-8"?>
<svg xmlns="http://www.w3.org/2000/svg" xmlns:xlink="http://www.w3.org/1999/xlink" width="39px" height="39px" viewBox="0 0 39 39" version="1.1">
<g id="surface1">
<path style=" stroke:none;fill-rule:nonzero;fill:rgb(16.078431%,71.372549%,96.470588%);fill-opacity:1;" d="M 19.5 3.25 C 10.523438 3.25 3.25 10.523438 3.25 19.5 C 3.25 28.476562 10.523438 35.75 19.5 35.75 C 28.476562 35.75 35.75 28.476562 35.75 19.5 C 35.75 10.523438 28.476562 3.25 19.5 3.25 Z M 19.5 3.25 "/>
<path style=" stroke:none;fill-rule:nonzero;fill:rgb(100%,100%,100%);fill-opacity:1;" d="M 27.585938 12.1875 L 24.539062 27.726562 C 24.539062 27.726562 24.410156 28.4375 23.527344 28.4375 C 23.0625 28.4375 22.820312 28.214844 22.820312 28.214844 L 16.226562 22.746094 L 13 21.117188 L 8.863281 20.015625 C 8.863281 20.015625 8.125 19.804688 8.125 19.195312 C 8.125 18.6875 8.882812 18.445312 8.882812 18.445312 L 26.203125 11.566406 C 26.203125 11.5625 26.730469 11.375 27.117188 11.375 C 27.355469 11.375 27.625 11.476562 27.625 11.78125 C 27.625 11.984375 27.585938 12.1875 27.585938 12.1875 Z M 27.585938 12.1875 "/>
<path style=" stroke:none;fill-rule:nonzero;fill:rgb(69.019608%,74.509804%,77.254902%);fill-opacity:1;" d="M 18.6875 24.785156 L 15.902344 27.527344 C 15.902344 27.527344 15.78125 27.621094 15.621094 27.625 C 15.566406 27.625 15.503906 27.617188 15.441406 27.589844 L 16.226562 22.742188 Z M 18.6875 24.785156 "/>
<path style=" stroke:none;fill-rule:nonzero;fill:rgb(81.176471%,84.705882%,86.27451%);fill-opacity:1;" d="M 24.292969 14.785156 C 24.152344 14.605469 23.902344 14.574219 23.722656 14.707031 L 13 21.125 C 13 21.125 14.710938 25.914062 14.972656 26.742188 C 15.234375 27.570312 15.441406 27.589844 15.441406 27.589844 L 16.226562 22.742188 L 24.214844 15.351562 C 24.394531 15.21875 24.425781 14.964844 24.292969 14.785156 Z M 24.292969 14.785156 "/>
</g>
</svg>
